# xmcd
#
# Track frame offsets: 
#        150
#        21059
#        41166
#
# Disc length: 834 seconds
#
# Revision: 0
# Processed by: cddbd v1.5.2PL0 Copyright (c) Steve Scherf et al.
# Submitted via: ExactAudioCopy v1.3
#
DISCID=1d034003
DTITLE=Lao乾妈 - 忆旅程
DYEAR=2016
DGENRE=Pop
TTITLE0=2012 孤途
TTITLE1=2014 提线木偶
TTITLE2=2016 不完美回忆
EXTD=
EXTT0=
EXTT1=
EXTT2=
PLAYORDER=
